{
	"asset":{
		"generator":"Khronos glTF Blender I/O v3.6.28",
		"version":"2.0"
	},
	"extensionsUsed":[
		"KHR_materials_clearcoat",
		"KHR_materials_specular"
	],
	"scene":0,
	"scenes":[
		{
			"name":"Scene",
			"nodes":[
				10
			]
		}
	],
	"nodes":[
		{
			"mesh":0,
			"name":"Capsule_Mat.2_0"
		},
		{
			"mesh":1,
			"name":"Cube_1_2_Speaker Grille_0"
		},
		{
			"mesh":2,
			"name":"Cube_1_Mat.3_0"
		},
		{
			"mesh":3,
			"name":"Cube_2_Mat.1_0"
		},
		{
			"mesh":4,
			"name":"Cube_4_Mat.9_0"
		},
		{
			"mesh":5,
			"name":"Cube_Mat.3_0"
		},
		{
			"mesh":6,
			"name":"Cylinder__0"
		},
		{
			"children":[
				0,
				1,
				2,
				3,
				4,
				5,
				6
			],
			"name":"RootNode"
		},
		{
			"children":[
				7
			],
			"name":"Object_2"
		},
		{
			"children":[
				8
			],
			"name":"68ca2410a90c4a1286ad63120c4f69d6.fbx"
		},
		{
			"children":[
				9
			],
			"name":"Airpods"
		}
	],
	"materials":[
		{
			"doubleSided":true,
			"name":"Mat.2",
			"pbrMetallicRoughness":{
				"metallicFactor":0
			}
		},
		{
			"doubleSided":true,
			"name":"Speaker_Grille",
			"pbrMetallicRoughness":{
				"baseColorFactor":[
					0.2118101716041565,
					0.2118101716041565,
					0.2118101716041565,
					1
				],
				"baseColorTexture":{
					"index":0
				},
				"roughnessFactor":0.37028685212135315
			}
		},
		{
			"doubleSided":true,
			"name":"Mat.3",
			"pbrMetallicRoughness":{
				"baseColorFactor":[
					0,
					0,
					0,
					1
				],
				"metallicFactor":0,
				"roughnessFactor":0.9524317383766174
			}
		},
		{
			"doubleSided":true,
			"extensions":{
				"KHR_materials_clearcoat":{
					"clearcoatFactor":0.6811449527740479,
					"clearcoatRoughnessFactor":0.29714375734329224
				}
			},
			"name":"Mat.1",
			"pbrMetallicRoughness":{
				"metallicFactor":0,
				"roughnessFactor":0
			}
		},
		{
			"doubleSided":true,
			"extensions":{
				"KHR_materials_specular":{
					"specularColorFactor":[
						1,
						1,
						1
					]
				}
			},
			"name":"Mat.9",
			"pbrMetallicRoughness":{
				"metallicFactor":0.6811449527740479,
				"roughnessFactor":0
			}
		},
		{
			"doubleSided":true,
			"name":"Cylinder__0",
			"pbrMetallicRoughness":{
				"metallicFactor":0,
				"roughnessFactor":0.6000000238418579
			}
		}
	],
	"meshes":[
		{
			"name":"Capsule_Mat.2_0",
			"primitives":[
				{
					"attributes":{
						"POSITION":0,
						"NORMAL":1,
						"TEXCOORD_0":2
					},
					"indices":3,
					"material":0
				}
			]
		},
		{
			"name":"Cube_1_2_Speaker Grille_0",
			"primitives":[
				{
					"attributes":{
						"POSITION":4,
						"NORMAL":5,
						"TEXCOORD_0":6
					},
					"indices":7,
					"material":1
				}
			]
		},
		{
			"name":"Cube_1_Mat.3_0",
			"primitives":[
				{
					"attributes":{
						"POSITION":8,
						"NORMAL":9,
						"TEXCOORD_0":10
					},
					"indices":7,
					"material":2
				}
			]
		},
		{
			"name":"Cube_2_Mat.1_0",
			"primitives":[
				{
					"attributes":{
						"POSITION":11,
						"NORMAL":12,
						"TEXCOORD_0":13
					},
					"indices":14,
					"material":3
				}
			]
		},
		{
			"name":"Cube_4_Mat.9_0",
			"primitives":[
				{
					"attributes":{
						"POSITION":15,
						"NORMAL":16,
						"TEXCOORD_0":17
					},
					"indices":18,
					"material":4
				}
			]
		},
		{
			"name":"Cube_Mat.3_0",
			"primitives":[
				{
					"attributes":{
						"POSITION":19,
						"NORMAL":20,
						"TEXCOORD_0":21
					},
					"indices":22,
					"material":2
				}
			]
		},
		{
			"name":"Cylinder__0",
			"primitives":[
				{
					"attributes":{
						"POSITION":23,
						"NORMAL":24,
						"TEXCOORD_0":25
					},
					"indices":26,
					"material":5
				}
			]
		}
	],
	"textures":[
		{
			"sampler":0,
			"source":0
		}
	],
	"images":[
		{
			"bufferView":8,
			"mimeType":"image/png",
			"name":"Speaker_Grille_baseColor"
		}
	],
	"accessors":[
		{
			"bufferView":0,
			"componentType":5126,
			"count":1817,
			"max":[
				-0.11874481290578842,
				0.08635707199573517,
				0.15109440684318542
			],
			"min":[
				-0.3073928654193878,
				-0.1648123413324356,
				-0.06724576652050018
			],
			"type":"VEC3"
		},
		{
			"bufferView":1,
			"componentType":5126,
			"count":1817,
			"type":"VEC3"
		},
		{
			"bufferView":2,
			"componentType":5126,
			"count":1817,
			"type":"VEC2"
		},
		{
			"bufferView":3,
			"componentType":5123,
			"count":10560,
			"type":"SCALAR"
		},
		{
			"bufferView":4,
			"componentType":5126,
			"count":336,
			"max":[
				0.17770057916641235,
				0.18252034485340118,
				0.19485551118850708
			],
			"min":[
				-0.10881367325782776,
				-0.0905725285410881,
				-0.15816591680049896
			],
			"type":"VEC3"
		},
		{
			"bufferView":5,
			"componentType":5126,
			"count":336,
			"type":"VEC3"
		},
		{
			"bufferView":6,
			"componentType":5126,
			"count":336,
			"type":"VEC2"
		},
		{
			"bufferView":7,
			"componentType":5123,
			"count":1704,
			"type":"SCALAR"
		},
		{
			"bufferView":9,
			"componentType":5126,
			"count":336,
			"max":[
				0.17794260382652283,
				0.18154945969581604,
				0.19333946704864502
			],
			"min":[
				-0.11884771287441254,
				-0.09718792885541916,
				-0.15739284455776215
			],
			"type":"VEC3"
		},
		{
			"bufferView":10,
			"componentType":5126,
			"count":336,
			"type":"VEC3"
		},
		{
			"bufferView":11,
			"componentType":5126,
			"count":336,
			"type":"VEC2"
		},
		{
			"bufferView":12,
			"componentType":5126,
			"count":8116,
			"max":[
				0.1861901879310608,
				0.22652041912078857,
				0.20726849138736725
			],
			"min":[
				-0.21392714977264404,
				-0.4502950608730316,
				-0.1616777926683426
			],
			"type":"VEC3"
		},
		{
			"bufferView":13,
			"componentType":5126,
			"count":8116,
			"type":"VEC3"
		},
		{
			"bufferView":14,
			"componentType":5126,
			"count":8116,
			"type":"VEC2"
		},
		{
			"bufferView":15,
			"componentType":5123,
			"count":39912,
			"type":"SCALAR"
		},
		{
			"bufferView":16,
			"componentType":5126,
			"count":1184,
			"max":[
				0.18064849078655243,
				-0.41086938977241516,
				-0.030117273330688477
			],
			"min":[
				0.05450259894132614,
				-0.4469662606716156,
				-0.15640506148338318
			],
			"type":"VEC3"
		},
		{
			"bufferView":17,
			"componentType":5126,
			"count":1184,
			"type":"VEC3"
		},
		{
			"bufferView":18,
			"componentType":5126,
			"count":1184,
			"type":"VEC2"
		},
		{
			"bufferView":19,
			"componentType":5123,
			"count":5760,
			"type":"SCALAR"
		},
		{
			"bufferView":20,
			"componentType":5126,
			"count":305,
			"max":[
				0.11290149390697479,
				0.22539113461971283,
				0.15727901458740234
			],
			"min":[
				-0.1825869232416153,
				-0.14861348271369934,
				-0.04915488883852959
			],
			"type":"VEC3"
		},
		{
			"bufferView":21,
			"componentType":5126,
			"count":305,
			"type":"VEC3"
		},
		{
			"bufferView":22,
			"componentType":5126,
			"count":305,
			"type":"VEC2"
		},
		{
			"bufferView":23,
			"componentType":5123,
			"count":1440,
			"type":"SCALAR"
		},
		{
			"bufferView":24,
			"componentType":5126,
			"count":180,
			"max":[
				-0.11446072161197662,
				0.04055572673678398,
				0.10906411707401276
			],
			"min":[
				-0.2856360971927643,
				-0.12917058169841766,
				-0.036323465406894684
			],
			"type":"VEC3"
		},
		{
			"bufferView":25,
			"componentType":5126,
			"count":180,
			"type":"VEC3"
		},
		{
			"bufferView":26,
			"componentType":5126,
			"count":180,
			"type":"VEC2"
		},
		{
			"bufferView":27,
			"componentType":5123,
			"count":672,
			"type":"SCALAR"
		}
	],
	"bufferViews":[
		{
			"buffer":0,
			"byteLength":21804,
			"byteOffset":0,
			"target":34962
		},
		{
			"buffer":0,
			"byteLength":21804,
			"byteOffset":21804,
			"target":34962
		},
		{
			"buffer":0,
			"byteLength":14536,
			"byteOffset":43608,
			"target":34962
		},
		{
			"buffer":0,
			"byteLength":21120,
			"byteOffset":58144,
			"target":34963
		},
		{
			"buffer":0,
			"byteLength":4032,
			"byteOffset":79264,
			"target":34962
		},
		{
			"buffer":0,
			"byteLength":4032,
			"byteOffset":83296,
			"target":34962
		},
		{
			"buffer":0,
			"byteLength":2688,
			"byteOffset":87328,
			"target":34962
		},
		{
			"buffer":0,
			"byteLength":3408,
			"byteOffset":90016,
			"target":34963
		},
		{
			"buffer":0,
			"byteLength":468264,
			"byteOffset":93424
		},
		{
			"buffer":0,
			"byteLength":4032,
			"byteOffset":561688,
			"target":34962
		},
		{
			"buffer":0,
			"byteLength":4032,
			"byteOffset":565720,
			"target":34962
		},
		{
			"buffer":0,
			"byteLength":2688,
			"byteOffset":569752,
			"target":34962
		},
		{
			"buffer":0,
			"byteLength":97392,
			"byteOffset":572440,
			"target":34962
		},
		{
			"buffer":0,
			"byteLength":97392,
			"byteOffset":669832,
			"target":34962
		},
		{
			"buffer":0,
			"byteLength":64928,
			"byteOffset":767224,
			"target":34962
		},
		{
			"buffer":0,
			"byteLength":79824,
			"byteOffset":832152,
			"target":34963
		},
		{
			"buffer":0,
			"byteLength":14208,
			"byteOffset":911976,
			"target":34962
		},
		{
			"buffer":0,
			"byteLength":14208,
			"byteOffset":926184,
			"target":34962
		},
		{
			"buffer":0,
			"byteLength":9472,
			"byteOffset":940392,
			"target":34962
		},
		{
			"buffer":0,
			"byteLength":11520,
			"byteOffset":949864,
			"target":34963
		},
		{
			"buffer":0,
			"byteLength":3660,
			"byteOffset":961384,
			"target":34962
		},
		{
			"buffer":0,
			"byteLength":3660,
			"byteOffset":965044,
			"target":34962
		},
		{
			"buffer":0,
			"byteLength":2440,
			"byteOffset":968704,
			"target":34962
		},
		{
			"buffer":0,
			"byteLength":2880,
			"byteOffset":971144,
			"target":34963
		},
		{
			"buffer":0,
			"byteLength":2160,
			"byteOffset":974024,
			"target":34962
		},
		{
			"buffer":0,
			"byteLength":2160,
			"byteOffset":976184,
			"target":34962
		},
		{
			"buffer":0,
			"byteLength":1440,
			"byteOffset":978344,
			"target":34962
		},
		{
			"buffer":0,
			"byteLength":1344,
			"byteOffset":979784,
			"target":34963
		}
	],
	"samplers":[
		{
			"magFilter":9729,
			"minFilter":9987
		}
	],
	"buffers":[
		{
			"byteLength":981128,
			"uri":"data:application/octet-stream;base64,"
		}
	]
}
